<?xml version="1.0" encoding="utf-8"?>
<!-- Generator: Adobe Illustrator 26.3.0, SVG Export Plug-In . SVG Version: 6.00 Build 0)  -->
<svg version="1.1" id="Capa_1" xmlns="http://www.w3.org/2000/svg" xmlns:xlink="http://www.w3.org/1999/xlink" x="0px" y="0px"
	 viewBox="0 0 1000 1000" style="enable-background:new 0 0 1000 1000;" xml:space="preserve">
<style type="text/css">
	.st0{fill:#1933AB;}
	.st1{fill:#1A8BCD;stroke:#1A8BCD;stroke-miterlimit:10;}
	.st2{fill:none;}
	.st3{fill:#FFFFFF;}
	.st4{font-family:'PalatinoLinotype-Roman';}
	.st5{font-size:211.9259px;}
	.st6{letter-spacing:17.22;}
	.st7{font-size:235.3157px;}
	.st8{letter-spacing:19.03;}
</style>
<g>
	<g>
		<path d="M397.42,390.64h44.95v3.96h-13.34v73.34c0,9.06-0.82,16.15-2.47,21.25c-1.65,5.1-5.02,9.62-10.12,13.56
			c-5.1,3.94-10.56,5.9-16.38,5.9c-5.64,0-10.51-1.72-14.62-5.17c-4.11-3.44-6.16-7.29-6.16-11.54c0-2.59,0.77-4.75,2.3-6.49
			c1.53-1.73,3.36-2.6,5.48-2.6c2.07,0,3.79,0.77,5.14,2.29c1.35,1.53,2.03,3.43,2.03,5.71c0,1.66-0.36,3.19-1.08,4.58
			c-1.22,1.4-1.83,2.61-1.83,3.65c0,1.45,0.96,2.74,2.88,3.88c1.92,1.14,4,1.71,6.26,1.71c3.88,0,6.94-1.45,9.17-4.35
			c2.23-2.9,3.35-9.99,3.35-21.29V394.6h-15.57V390.64z"/>
		<path d="M450.94,464.13c0-8.96,2.68-16.59,8.06-22.88c5.37-6.29,12.02-9.44,19.97-9.44c7.76,0,14.34,3.02,19.73,9.05
			c5.39,6.03,8.09,13.58,8.09,22.65c0,9.27-2.8,17.13-8.39,23.58c-5.6,6.45-12.21,9.67-19.83,9.67c-7.49,0-13.97-3.15-19.43-9.44
			C453.67,481.03,450.94,473.3,450.94,464.13z M491.56,464.13c0-9.53-0.28-15.82-0.85-18.88c-0.56-3.05-1.83-5.48-3.79-7.26
			c-1.96-1.79-4.66-2.68-8.09-2.68c-3.25,0-5.92,0.92-8.02,2.76c-2.1,1.84-3.4,4.29-3.89,7.34c-0.5,3.06-0.75,9.35-0.75,18.88
			c0,9.58,0.3,15.93,0.91,19.03c0.61,3.11,1.94,5.54,3.99,7.3c2.05,1.76,4.64,2.64,7.75,2.64c3.16,0,5.79-0.89,7.89-2.68
			c2.1-1.79,3.43-4.27,3.99-7.46C491.27,479.94,491.56,473.61,491.56,464.13z"/>
		<path d="M549.67,459.94v-7.92c0-6.47-0.46-10.72-1.39-12.74c-0.93-2.02-3.42-3.03-7.48-3.03c-7.31,0-10.97,1.61-10.97,4.82
			c0,0.93,0.3,1.96,0.91,3.07c0.61,1.12,0.91,2.42,0.91,3.92c0,2.12-0.61,3.74-1.83,4.86c-1.22,1.11-2.6,1.67-4.13,1.67
			c-1.99,0-3.52-0.71-4.6-2.14c-1.08-1.42-1.62-3.09-1.62-5.01c0-4.14,2.11-7.62,6.33-10.45c4.22-2.82,10.1-4.23,17.63-4.23
			c6.05,0,10.47,0.8,13.27,2.41c2.8,1.61,4.52,3.6,5.18,5.98c0.65,2.38,0.98,5.75,0.98,10.1v28.59c0,4.2,0.26,6.81,0.78,7.85
			c0.52,1.04,1.32,1.55,2.4,1.55c1.62,0,3.2-1.27,4.74-3.81h1.62c-1.17,7.56-5.01,11.34-11.51,11.34c-6.27,0-10.02-4.14-11.24-12.43
			c-5.28,8.29-11.46,12.43-18.55,12.43c-4.69,0-8.44-1.46-11.24-4.39c-2.8-2.93-4.2-6.51-4.2-10.76
			C515.69,468.4,527.02,461.18,549.67,459.94z M549.67,471.9v-8.39c-8.35,0.36-13.85,1.8-16.52,4.31
			c-2.66,2.51-3.99,6.15-3.99,10.91c0,3.47,0.8,6.16,2.4,8.08c1.6,1.92,3.44,2.87,5.52,2.87c2.66,0,5.07-1.02,7.21-3.07
			c2.14-2.05,3.58-4.1,4.3-6.18C549.31,478.37,549.67,475.53,549.67,471.9z"/>
		<path d="M586.2,490.85v-53.14h-9.61v-3.96h6.16c6.09,0,11.62-0.39,16.59-1.17v15.15h0.27c4.65-10.62,11.21-15.93,19.7-15.93
			c3.97,0,7.23,1.17,9.78,3.5c2.55,2.33,4.29,5.08,5.21,8.23c0.92,3.16,1.39,8.05,1.39,14.68v32.63h10.56v3.96h-32.76v-3.96h9
			v-38.84c0-5.96-0.33-10.07-0.98-12.35c-0.66-2.28-2.36-3.42-5.11-3.42c-4.38,0-8.32,2.58-11.81,7.73
			c-3.5,5.15-5.25,12.08-5.25,20.78v26.1h8.87v3.96h-31.61v-3.96H586.2z"/>
		<path d="M658.13,490.85v-53.14h-11.24v-3.96h11.24c-0.36-13.72,2.11-24.54,7.41-32.43c5.3-7.9,11.61-11.85,18.92-11.85
			c3.52,0,6.58,1.17,9.17,3.5c2.59,2.33,3.89,5.15,3.89,8.47c0,2.28-0.62,4.2-1.86,5.75c-1.24,1.55-2.81,2.33-4.7,2.33
			c-1.62,0-3.02-0.65-4.2-1.94c-1.17-1.29-1.76-2.93-1.76-4.89c0-3.05,1.49-5.59,4.47-7.61c-1.35-1.4-3.34-2.1-5.96-2.1
			c-2.53,0-4.92,0.88-7.18,2.64c-2.26,1.76-3.63,4.42-4.13,7.96c-0.5,3.55-0.75,9.26-0.75,17.13v13.05h12.59v3.96h-12.59v53.14
			h11.37v3.96h-34.79v-3.96H658.13z"/>
		<path d="M697.7,490.85v-53.14h-10.97v-3.96h11.1c5.69,0,10.02-0.34,13-1.01v14.68h0.27c3.16-9.79,7.83-14.68,14.01-14.68
			c2.71,0,4.88,0.95,6.53,2.84c1.65,1.89,2.47,4.18,2.47,6.88c0,2.49-0.67,4.49-2,6.02c-1.33,1.53-3.06,2.29-5.18,2.29
			c-3.88,0-5.82-2.23-5.82-6.68l0.27-3.34c0-1.19-0.47-1.79-1.42-1.79c-1.49,0-3.38,2.31-5.69,6.91c-2.3,4.61-3.45,11.65-3.45,21.13
			v23.85h11.24v3.96h-35.34v-3.96H697.7z"/>
		<path d="M772.95,459.94v-7.92c0-6.47-0.46-10.72-1.39-12.74c-0.93-2.02-3.42-3.03-7.48-3.03c-7.31,0-10.97,1.61-10.97,4.82
			c0,0.93,0.3,1.96,0.91,3.07c0.61,1.12,0.91,2.42,0.91,3.92c0,2.12-0.61,3.74-1.83,4.86c-1.22,1.11-2.6,1.67-4.13,1.67
			c-1.99,0-3.52-0.71-4.6-2.14c-1.08-1.42-1.62-3.09-1.62-5.01c0-4.14,2.11-7.62,6.33-10.45c4.22-2.82,10.1-4.23,17.63-4.23
			c6.05,0,10.47,0.8,13.27,2.41c2.8,1.61,4.52,3.6,5.18,5.98c0.65,2.38,0.98,5.75,0.98,10.1v28.59c0,4.2,0.26,6.81,0.78,7.85
			c0.52,1.04,1.32,1.55,2.4,1.55c1.62,0,3.2-1.27,4.74-3.81h1.62c-1.17,7.56-5.01,11.34-11.51,11.34c-6.27,0-10.02-4.14-11.24-12.43
			c-5.28,8.29-11.46,12.43-18.55,12.43c-4.69,0-8.44-1.46-11.24-4.39c-2.8-2.93-4.2-6.51-4.2-10.76
			C738.96,468.4,750.29,461.18,772.95,459.94z M772.95,471.9v-8.39c-8.35,0.36-13.85,1.8-16.52,4.31
			c-2.66,2.51-3.99,6.15-3.99,10.91c0,3.47,0.8,6.16,2.4,8.08c1.6,1.92,3.44,2.87,5.52,2.87c2.66,0,5.07-1.02,7.21-3.07
			c2.14-2.05,3.58-4.1,4.3-6.18C772.58,478.37,772.95,475.53,772.95,471.9z"/>
		<path d="M809.47,490.85v-53.14h-9.61v-3.96h6.16c6.09,0,11.62-0.39,16.59-1.17v15.15h0.27c4.65-10.62,11.21-15.93,19.7-15.93
			c3.97,0,7.23,1.17,9.78,3.5c2.55,2.33,4.29,5.08,5.21,8.23c0.92,3.16,1.39,8.05,1.39,14.68v32.63h10.56v3.96h-32.76v-3.96h9
			v-38.84c0-5.96-0.33-10.07-0.98-12.35c-0.66-2.28-2.36-3.42-5.11-3.42c-4.38,0-8.32,2.58-11.81,7.73
			c-3.5,5.15-5.25,12.08-5.25,20.78v26.1h8.87v3.96h-31.61v-3.96H809.47z"/>
		<path d="M919.24,473.69h2.91c-1.35,7.51-4.02,13.23-7.99,17.17c-3.97,3.94-8.76,5.9-14.35,5.9c-7.63,0-14.08-3.25-19.36-9.75
			c-5.28-6.5-7.92-13.97-7.92-22.41c0-8.7,2.71-16.34,8.12-22.92c5.42-6.58,12.14-9.87,20.17-9.87c5.73,0,10.4,1.67,14.01,5.01
			c3.61,3.34,5.42,7.08,5.42,11.23c0,2.07-0.62,3.94-1.86,5.59c-1.24,1.66-2.85,2.49-4.84,2.49c-1.94,0-3.55-0.7-4.84-2.1
			c-1.29-1.4-1.93-3.24-1.93-5.52c0-1.6,0.55-3.19,1.66-4.74c1.1-1.55,1.66-2.61,1.66-3.19c0-1.4-0.84-2.63-2.51-3.69
			c-1.67-1.06-3.84-1.59-6.5-1.59c-4.69,0-8.18,1.45-10.46,4.35c-2.28,2.9-3.42,9.04-3.42,18.41c0,9.37,0.21,16.3,0.64,20.78
			c0.43,4.48,1.57,8,3.42,10.57c1.85,2.56,4.9,3.85,9.14,3.85C909.36,493.26,915.63,486.74,919.24,473.69z"/>
		<path d="M927.81,464.13c0-8.96,2.68-16.59,8.06-22.88c5.37-6.29,12.02-9.44,19.97-9.44c7.76,0,14.34,3.02,19.73,9.05
			c5.39,6.03,8.09,13.58,8.09,22.65c0,9.27-2.8,17.13-8.39,23.58c-5.6,6.45-12.21,9.67-19.83,9.67c-7.49,0-13.97-3.15-19.43-9.44
			C930.54,481.03,927.81,473.3,927.81,464.13z M968.42,464.13c0-9.53-0.28-15.82-0.85-18.88c-0.56-3.05-1.83-5.48-3.79-7.26
			c-1.96-1.79-4.66-2.68-8.09-2.68c-3.25,0-5.92,0.92-8.02,2.76c-2.1,1.84-3.4,4.29-3.89,7.34c-0.5,3.06-0.75,9.35-0.75,18.88
			c0,9.58,0.3,15.93,0.91,19.03c0.61,3.11,1.94,5.54,3.99,7.3c2.05,1.76,4.64,2.64,7.75,2.64c3.16,0,5.79-0.89,7.89-2.68
			c2.1-1.79,3.43-4.27,3.99-7.46C968.14,479.94,968.42,473.61,968.42,464.13z"/>
		<path d="M479.16,543v17.71h16.04v3.96h-16.04v38.45c0,5.65,0.33,9.5,0.98,11.58c0.65,2.07,2.4,3.11,5.25,3.11
			c2.17,0,4.25-0.83,6.26-2.49c2.01-1.66,3.53-4.22,4.57-7.69h2.91c-2.08,10.05-8.37,15.07-18.89,15.07c-4.42,0-7.67-0.92-9.75-2.76
			c-2.08-1.84-3.35-4.1-3.83-6.8c-0.47-2.69-0.71-6.34-0.71-10.95v-37.52h-12.05v-3.96h12.05v-16.39
			C470.43,544.32,474.83,543.88,479.16,543z"/>
		<path d="M540.73,560.01v17.4h-2.78c-2.08-10.1-7.13-15.15-15.16-15.15c-3.48,0-6.38,1.05-8.7,3.15c-2.32,2.1-3.49,4.49-3.49,7.19
			c0,2.28,0.82,4.08,2.47,5.4c1.65,1.32,5.54,2.45,11.68,3.38c13.49,1.92,20.24,8.96,20.24,21.13c0,6.06-1.75,11.11-5.25,15.15
			c-3.5,4.04-7.84,6.06-13.03,6.06c-5.1,0-10.04-2.41-14.83-7.22l-4.74,4.66h-2.37v-22.92h2.37c3.88,14.66,10.4,21.98,19.56,21.98
			c3.47,0,6.63-1.27,9.48-3.81c2.84-2.54,4.27-5.52,4.27-8.93c0-2.85-0.85-5-2.54-6.45c-1.69-1.45-6.26-2.8-13.71-4.04
			c-12.68-2.12-19.02-8.6-19.02-19.42c0-5.33,1.7-9.8,5.11-13.4c3.41-3.6,7.57-5.4,12.49-5.4c5.19,0,9.55,1.97,13.07,5.9
			c0.9-1.09,1.83-2.64,2.77-4.66H540.73z"/>
		<path d="M572.59,559.55v58.26h8.87v3.96h-31.48v-3.96h9.48v-53.14h-9.48v-3.96h9.61C564.19,560.71,568.53,560.33,572.59,559.55z
			 M558.98,529.64c0-2.28,0.73-4.25,2.2-5.9c1.47-1.66,3.19-2.49,5.18-2.49c1.98,0,3.71,0.82,5.18,2.45c1.47,1.63,2.2,3.61,2.2,5.94
			c0,2.43-0.72,4.45-2.17,6.06c-1.45,1.61-3.18,2.41-5.21,2.41c-2.03,0-3.77-0.82-5.21-2.45
			C559.7,534.03,558.98,532.02,558.98,529.64z"/>
		<path d="M632.2,600.64h2.91c-1.35,7.51-4.02,13.23-7.99,17.17c-3.97,3.94-8.76,5.9-14.35,5.9c-7.63,0-14.08-3.25-19.36-9.75
			c-5.28-6.5-7.92-13.97-7.92-22.41c0-8.7,2.71-16.34,8.12-22.92c5.42-6.58,12.14-9.87,20.17-9.87c5.73,0,10.4,1.67,14.01,5.01
			c3.61,3.34,5.42,7.08,5.42,11.23c0,2.07-0.62,3.94-1.86,5.59c-1.24,1.66-2.85,2.49-4.84,2.49c-1.94,0-3.55-0.7-4.84-2.1
			c-1.29-1.4-1.93-3.24-1.93-5.52c0-1.6,0.55-3.19,1.66-4.74c1.1-1.55,1.66-2.61,1.66-3.19c0-1.4-0.84-2.63-2.51-3.69
			c-1.67-1.06-3.84-1.59-6.5-1.59c-4.69,0-8.18,1.45-10.46,4.35c-2.28,2.9-3.42,9.04-3.42,18.41c0,9.37,0.21,16.3,0.64,20.78
			c0.43,4.48,1.57,8,3.42,10.57c1.85,2.56,4.9,3.85,9.14,3.85C622.31,620.22,628.58,613.7,632.2,600.64z"/>
		<path d="M647.13,617.81v-96.25h-9.68v-3.96h9.27c6.23,0,10.76-0.39,13.61-1.17v101.38h9.55v3.96h-32.42v-3.96H647.13z"/>
		<path d="M694.42,559.55v58.26h8.87v3.96H671.8v-3.96h9.48v-53.14h-9.48v-3.96h9.61C686.02,560.71,690.35,560.33,694.42,559.55z
			 M680.81,529.64c0-2.28,0.73-4.25,2.2-5.9c1.47-1.66,3.19-2.49,5.18-2.49c1.98,0,3.71,0.82,5.18,2.45c1.47,1.63,2.2,3.61,2.2,5.94
			c0,2.43-0.72,4.45-2.17,6.06c-1.45,1.61-3.18,2.41-5.21,2.41c-2.03,0-3.77-0.82-5.21-2.45
			C681.53,534.03,680.81,532.02,680.81,529.64z"/>
		<path d="M743.8,560.01v17.4h-2.78c-2.08-10.1-7.13-15.15-15.16-15.15c-3.48,0-6.38,1.05-8.7,3.15c-2.32,2.1-3.49,4.49-3.49,7.19
			c0,2.28,0.82,4.08,2.47,5.4c1.65,1.32,5.54,2.45,11.68,3.38c13.49,1.92,20.24,8.96,20.24,21.13c0,6.06-1.75,11.11-5.25,15.15
			c-3.5,4.04-7.84,6.06-13.03,6.06c-5.1,0-10.04-2.41-14.83-7.22l-4.74,4.66h-2.37v-22.92h2.37c3.88,14.66,10.4,21.98,19.56,21.98
			c3.47,0,6.63-1.27,9.48-3.81c2.84-2.54,4.27-5.52,4.27-8.93c0-2.85-0.85-5-2.54-6.45c-1.69-1.45-6.26-2.8-13.71-4.04
			c-12.68-2.12-19.02-8.6-19.02-19.42c0-5.33,1.7-9.8,5.11-13.4c3.41-3.6,7.57-5.4,12.49-5.4c5.19,0,9.55,1.97,13.07,5.9
			c0.9-1.09,1.83-2.64,2.77-4.66H743.8z"/>
		<path d="M777.89,543v17.71h16.04v3.96h-16.04v38.45c0,5.65,0.33,9.5,0.98,11.58c0.65,2.07,2.4,3.11,5.25,3.11
			c2.17,0,4.25-0.83,6.26-2.49c2.01-1.66,3.53-4.22,4.57-7.69h2.91c-2.08,10.05-8.37,15.07-18.89,15.07c-4.42,0-7.67-0.92-9.75-2.76
			c-2.08-1.84-3.35-4.1-3.83-6.8c-0.47-2.69-0.71-6.34-0.71-10.95v-37.52h-12.05v-3.96h12.05v-16.39
			C769.16,544.32,773.56,543.88,777.89,543z"/>
		<path d="M838.18,586.89v-7.92c0-6.47-0.46-10.72-1.39-12.74c-0.93-2.02-3.42-3.03-7.48-3.03c-7.31,0-10.97,1.61-10.97,4.82
			c0,0.93,0.3,1.96,0.91,3.07c0.61,1.12,0.91,2.42,0.91,3.92c0,2.12-0.61,3.74-1.83,4.86c-1.22,1.11-2.6,1.67-4.13,1.67
			c-1.99,0-3.52-0.71-4.6-2.14c-1.08-1.42-1.62-3.09-1.62-5.01c0-4.14,2.11-7.62,6.33-10.45c4.22-2.82,10.1-4.23,17.63-4.23
			c6.05,0,10.47,0.8,13.27,2.41c2.8,1.61,4.52,3.6,5.18,5.98c0.65,2.38,0.98,5.75,0.98,10.1v28.59c0,4.2,0.26,6.81,0.78,7.85
			c0.52,1.04,1.32,1.55,2.4,1.55c1.62,0,3.2-1.27,4.74-3.81h1.62c-1.17,7.56-5.01,11.34-11.51,11.34c-6.27,0-10.02-4.14-11.24-12.43
			c-5.28,8.29-11.46,12.43-18.55,12.43c-4.69,0-8.44-1.46-11.24-4.39c-2.8-2.93-4.2-6.51-4.2-10.76
			C804.19,595.36,815.52,588.14,838.18,586.89z M838.18,598.86v-8.39c-8.35,0.36-13.85,1.8-16.52,4.31
			c-2.66,2.51-3.99,6.15-3.99,10.91c0,3.47,0.8,6.16,2.4,8.08c1.6,1.92,3.44,2.87,5.52,2.87c2.66,0,5.07-1.02,7.21-3.07
			c2.14-2.05,3.58-4.1,4.3-6.18C837.81,605.33,838.18,602.48,838.18,598.86z"/>
		<path d="M903.27,560.01v17.4h-2.78c-2.08-10.1-7.13-15.15-15.16-15.15c-3.48,0-6.38,1.05-8.7,3.15c-2.32,2.1-3.49,4.49-3.49,7.19
			c0,2.28,0.82,4.08,2.47,5.4c1.65,1.32,5.54,2.45,11.68,3.38c13.49,1.92,20.24,8.96,20.24,21.13c0,6.06-1.75,11.11-5.25,15.15
			c-3.5,4.04-7.84,6.06-13.03,6.06c-5.1,0-10.04-2.41-14.83-7.22l-4.74,4.66h-2.37v-22.92h2.37c3.88,14.66,10.4,21.98,19.56,21.98
			c3.47,0,6.63-1.27,9.48-3.81c2.84-2.54,4.27-5.52,4.27-8.93c0-2.85-0.85-5-2.54-6.45c-1.69-1.45-6.26-2.8-13.71-4.04
			c-12.68-2.12-19.02-8.6-19.02-19.42c0-5.33,1.7-9.8,5.11-13.4c3.41-3.6,7.57-5.4,12.49-5.4c5.19,0,9.55,1.97,13.07,5.9
			c0.9-1.09,1.83-2.64,2.77-4.66H903.27z"/>
	</g>
	<rect x="18.22" y="362.89" class="st0" width="345.76" height="279.7"/>
	<rect x="36.87" y="381.77" class="st1" width="305.29" height="241.95"/>
	<rect x="63.38" y="401.06" class="st2" width="117.78" height="203.37"/>
	<text transform="matrix(1.1033 0 0 1 83.3366 554.3068)" class="st3 st4 st5 st6">J</text>
	<rect x="155.84" y="412.99" class="st2" width="161.86" height="179.51"/>
	<text transform="matrix(1.1033 0 0 1 157.2145 583.1495)" class="st3 st4 st7 st8">T</text>
</g>
</svg>
