<?xml version="1.0" encoding="utf-8"?>
<!-- Generator: Adobe Illustrator 26.3.0, SVG Export Plug-In . SVG Version: 6.00 Build 0)  -->
<svg version="1.1" id="Capa_1" xmlns="http://www.w3.org/2000/svg" xmlns:xlink="http://www.w3.org/1999/xlink" x="0px" y="0px"
	 viewBox="0 0 1000 1000" style="enable-background:new 0 0 1000 1000;" xml:space="preserve">
<style type="text/css">
	.st0{fill:#1933AB;}
	.st1{fill:#1A8BCD;stroke:#1A8BCD;stroke-miterlimit:10;}
	.st2{fill:none;}
	.st3{fill:#FFFFFF;}
	.st4{font-family:'PalatinoLinotype-Roman';}
	.st5{font-size:211.9259px;}
	.st6{letter-spacing:16.3;}
	.st7{font-size:235.3157px;}
	.st8{letter-spacing:18.1;}
	.st9{font-family:'CenturyGothic';}
	.st10{font-size:32px;}
	.st11{letter-spacing:2;}
</style>
<g>
	<path d="M388.6,396.9h45.3v2.9h-13.4v52.9c0,6.5-0.8,11.6-2.5,15.3c-1.7,3.7-5.1,6.9-10.2,9.8c-5.1,2.8-10.6,4.3-16.5,4.3
		c-5.7,0-10.6-1.2-14.7-3.7c-4.1-2.5-6.2-5.3-6.2-8.3c0-1.9,0.8-3.4,2.3-4.7c1.5-1.2,3.4-1.9,5.5-1.9c2.1,0,3.8,0.6,5.2,1.7
		c1.4,1.1,2,2.5,2,4.1c0,1.2-0.4,2.3-1.1,3.3c-1.2,1-1.8,1.9-1.8,2.6c0,1,1,2,2.9,2.8c1.9,0.8,4,1.2,6.3,1.2c3.9,0,7-1,9.2-3.1
		c2.2-2.1,3.4-7.2,3.4-15.4v-60.9h-15.7L388.6,396.9L388.6,396.9z"/>
	<path d="M442.6,449.9c0-6.5,2.7-12,8.1-16.5c5.4-4.5,12.1-6.8,20.1-6.8c7.8,0,14.5,2.2,19.9,6.5s8.2,9.8,8.2,16.3
		c0,6.7-2.8,12.4-8.5,17c-5.6,4.7-12.3,7-20,7c-7.5,0-14.1-2.3-19.6-6.8C445.3,462.1,442.6,456.5,442.6,449.9z M483.5,449.9
		c0-6.9-0.3-11.4-0.9-13.6c-0.6-2.2-1.8-4-3.8-5.2c-2-1.3-4.7-1.9-8.2-1.9c-3.3,0-6,0.7-8.1,2c-2.1,1.3-3.4,3.1-3.9,5.3
		c-0.5,2.2-0.8,6.7-0.8,13.6c0,6.9,0.3,11.5,0.9,13.7c0.6,2.2,2,4,4,5.3s4.7,1.9,7.8,1.9c3.2,0,5.8-0.6,8-1.9c2.1-1.3,3.5-3.1,4-5.4
		C483.2,461.3,483.5,456.7,483.5,449.9z"/>
	<path d="M542.1,446.9v-5.7c0-4.7-0.5-7.7-1.4-9.2c-0.9-1.5-3.4-2.2-7.5-2.2c-7.4,0-11.1,1.2-11.1,3.5c0,0.7,0.3,1.4,0.9,2.2
		c0.6,0.8,0.9,1.7,0.9,2.8c0,1.5-0.6,2.7-1.8,3.5c-1.2,0.8-2.6,1.2-4.2,1.2c-2,0-3.5-0.5-4.6-1.5c-1.1-1-1.6-2.2-1.6-3.6
		c0-3,2.1-5.5,6.4-7.5c4.3-2,10.2-3.1,17.8-3.1c6.1,0,10.6,0.6,13.4,1.7c2.8,1.2,4.6,2.6,5.2,4.3c0.7,1.7,1,4.1,1,7.3v20.6
		c0,3,0.3,4.9,0.8,5.7s1.3,1.1,2.4,1.1c1.6,0,3.2-0.9,4.8-2.7h1.6c-1.2,5.5-5,8.2-11.6,8.2c-6.3,0-10.1-3-11.3-9
		c-5.3,6-11.6,9-18.7,9c-4.7,0-8.5-1.1-11.3-3.2c-2.8-2.1-4.2-4.7-4.2-7.8C507.8,453,519.2,447.8,542.1,446.9z M542.1,455.5v-6.1
		c-8.4,0.3-14,1.3-16.6,3.1c-2.7,1.8-4,4.4-4,7.9c0,2.5,0.8,4.4,2.4,5.8c1.6,1.4,3.5,2.1,5.6,2.1c2.7,0,5.1-0.7,7.3-2.2
		c2.2-1.5,3.6-3,4.3-4.5C541.7,460.2,542.1,458.1,542.1,455.5z"/>
	<path d="M578.9,469.2v-38.3h-9.7V428h6.2c6.1,0,11.7-0.3,16.7-0.8v10.9h0.3c4.7-7.7,11.3-11.5,19.9-11.5c4,0,7.3,0.8,9.9,2.5
		s4.3,3.7,5.3,5.9c0.9,2.3,1.4,5.8,1.4,10.6v23.5h10.6v2.9h-33v-2.9h9.1v-28c0-4.3-0.3-7.3-1-8.9c-0.7-1.6-2.4-2.5-5.2-2.5
		c-4.4,0-8.4,1.9-11.9,5.6c-3.5,3.7-5.3,8.7-5.3,15v18.8h8.9v2.9h-31.9v-2.9L578.9,469.2L578.9,469.2z"/>
	<path d="M651.4,469.2v-38.3H640V428h11.3c-0.4-9.9,2.1-17.7,7.5-23.4c5.3-5.7,11.7-8.5,19.1-8.5c3.5,0,6.6,0.8,9.2,2.5
		s3.9,3.7,3.9,6.1c0,1.6-0.6,3-1.9,4.1c-1.2,1.1-2.8,1.7-4.7,1.7c-1.6,0-3-0.5-4.2-1.4c-1.2-0.9-1.8-2.1-1.8-3.5
		c0-2.2,1.5-4,4.5-5.5c-1.4-1-3.4-1.5-6-1.5c-2.5,0-5,0.6-7.2,1.9s-3.7,3.2-4.2,5.7c-0.5,2.6-0.8,6.7-0.8,12.4v9.4h12.7v2.9h-12.7
		v38.3h11.5v2.9h-35.1v-2.9L651.4,469.2L651.4,469.2z"/>
	<path d="M691.3,469.2v-38.3h-11.1V428h11.2c5.7,0,10.1-0.2,13.1-0.7v10.6h0.3c3.2-7.1,7.9-10.6,14.1-10.6c2.7,0,4.9,0.7,6.6,2
		c1.7,1.4,2.5,3,2.5,5c0,1.8-0.7,3.2-2,4.3c-1.3,1.1-3.1,1.7-5.2,1.7c-3.9,0-5.9-1.6-5.9-4.8l0.3-2.4c0-0.9-0.5-1.3-1.4-1.3
		c-1.5,0-3.4,1.7-5.7,5c-2.3,3.3-3.5,8.4-3.5,15.2v17.2h11.3v2.9h-35.6v-2.9L691.3,469.2L691.3,469.2z"/>
	<path d="M767.1,446.9v-5.7c0-4.7-0.5-7.7-1.4-9.2s-3.4-2.2-7.5-2.2c-7.4,0-11.1,1.2-11.1,3.5c0,0.7,0.3,1.4,0.9,2.2
		c0.6,0.8,0.9,1.7,0.9,2.8c0,1.5-0.6,2.7-1.8,3.5c-1.2,0.8-2.6,1.2-4.2,1.2c-2,0-3.5-0.5-4.6-1.5c-1.1-1-1.6-2.2-1.6-3.6
		c0-3,2.1-5.5,6.4-7.5c4.3-2,10.2-3.1,17.8-3.1c6.1,0,10.6,0.6,13.4,1.7c2.8,1.2,4.6,2.6,5.2,4.3c0.7,1.7,1,4.1,1,7.3v20.6
		c0,3,0.3,4.9,0.8,5.7s1.3,1.1,2.4,1.1c1.6,0,3.2-0.9,4.8-2.7h1.6c-1.2,5.5-5,8.2-11.6,8.2c-6.3,0-10.1-3-11.3-9
		c-5.3,6-11.6,9-18.7,9c-4.7,0-8.5-1.1-11.3-3.2c-2.8-2.1-4.2-4.7-4.2-7.8C732.8,453,744.3,447.8,767.1,446.9z M767.1,455.5v-6.1
		c-8.4,0.3-14,1.3-16.6,3.1c-2.7,1.8-4,4.4-4,7.9c0,2.5,0.8,4.4,2.4,5.8c1.6,1.4,3.5,2.1,5.6,2.1c2.7,0,5.1-0.7,7.3-2.2
		c2.2-1.5,3.6-3,4.3-4.5C766.7,460.2,767.1,458.1,767.1,455.5z"/>
	<path d="M803.9,469.2v-38.3h-9.7V428h6.2c6.1,0,11.7-0.3,16.7-0.8v10.9h0.3c4.7-7.7,11.3-11.5,19.9-11.5c4,0,7.3,0.8,9.9,2.5
		s4.3,3.7,5.3,5.9c0.9,2.3,1.4,5.8,1.4,10.6v23.5h10.6v2.9h-33v-2.9h9.1v-28c0-4.3-0.3-7.3-1-8.9c-0.7-1.6-2.4-2.5-5.2-2.5
		c-4.4,0-8.4,1.9-11.9,5.6c-3.5,3.7-5.3,8.7-5.3,15v18.8h8.9v2.9h-31.9v-2.9L803.9,469.2L803.9,469.2z"/>
	<path d="M914.5,456.8h2.9c-1.4,5.4-4.1,9.5-8.1,12.4c-4,2.8-8.8,4.3-14.5,4.3c-7.7,0-14.2-2.3-19.5-7c-5.3-4.7-8-10.1-8-16.2
		c0-6.3,2.7-11.8,8.2-16.5c5.5-4.7,12.2-7.1,20.3-7.1c5.8,0,10.5,1.2,14.1,3.6c3.6,2.4,5.5,5.1,5.5,8.1c0,1.5-0.6,2.8-1.9,4
		c-1.2,1.2-2.9,1.8-4.9,1.8c-2,0-3.6-0.5-4.9-1.5c-1.3-1-1.9-2.3-1.9-4c0-1.2,0.6-2.3,1.7-3.4c1.1-1.1,1.7-1.9,1.7-2.3
		c0-1-0.8-1.9-2.5-2.7c-1.7-0.8-3.9-1.1-6.6-1.1c-4.7,0-8.2,1-10.5,3.1c-2.3,2.1-3.4,6.5-3.4,13.3c0,6.8,0.2,11.8,0.6,15
		c0.4,3.2,1.6,5.8,3.4,7.6c1.9,1.8,4.9,2.8,9.2,2.8C904.6,470.9,910.9,466.2,914.5,456.8z"/>
	<path d="M923.2,449.9c0-6.5,2.7-12,8.1-16.5c5.4-4.5,12.1-6.8,20.1-6.8c7.8,0,14.5,2.2,19.9,6.5c5.4,4.3,8.2,9.8,8.2,16.3
		c0,6.7-2.8,12.4-8.5,17c-5.6,4.7-12.3,7-20,7c-7.5,0-14.1-2.3-19.6-6.8C925.9,462.1,923.2,456.5,923.2,449.9z M964.1,449.9
		c0-6.9-0.3-11.4-0.9-13.6c-0.6-2.2-1.8-4-3.8-5.2c-2-1.3-4.7-1.9-8.2-1.9c-3.3,0-6,0.7-8.1,2c-2.1,1.3-3.4,3.1-3.9,5.3
		c-0.5,2.2-0.8,6.7-0.8,13.6c0,6.9,0.3,11.5,0.9,13.7c0.6,2.2,2,4,4,5.3s4.7,1.9,7.8,1.9c3.2,0,5.8-0.6,8-1.9c2.1-1.3,3.5-3.1,4-5.4
		C963.8,461.3,964.1,456.7,964.1,449.9z"/>
	<path d="M471,506.8v12.8h16.2v2.9H471v27.7c0,4.1,0.3,6.9,1,8.4c0.7,1.5,2.4,2.2,5.3,2.2c2.2,0,4.3-0.6,6.3-1.8
		c2-1.2,3.6-3,4.6-5.5h2.9c-2.1,7.2-8.4,10.9-19,10.9c-4.5,0-7.7-0.7-9.8-2s-3.4-3-3.9-4.9c-0.5-1.9-0.7-4.6-0.7-7.9v-27.1h-12.1
		v-2.9h12.1v-11.8C462.2,507.7,466.6,507.4,471,506.8z"/>
	<path d="M533.1,519.1v12.5h-2.8c-2.1-7.3-7.2-10.9-15.3-10.9c-3.5,0-6.4,0.8-8.8,2.3c-2.3,1.5-3.5,3.2-3.5,5.2
		c0,1.6,0.8,2.9,2.5,3.9c1.7,1,5.6,1.8,11.8,2.4c13.6,1.4,20.4,6.5,20.4,15.2c0,4.4-1.8,8-5.3,10.9c-3.5,2.9-7.9,4.4-13.1,4.4
		c-5.1,0-10.1-1.7-14.9-5.2l-4.8,3.4h-2.4v-16.5h2.4c3.9,10.6,10.5,15.9,19.7,15.9c3.5,0,6.7-0.9,9.6-2.7c2.9-1.8,4.3-4,4.3-6.4
		c0-2.1-0.9-3.6-2.6-4.7c-1.7-1-6.3-2-13.8-2.9c-12.8-1.5-19.2-6.2-19.2-14c0-3.8,1.7-7.1,5.2-9.7c3.4-2.6,7.6-3.9,12.6-3.9
		c5.2,0,9.6,1.4,13.2,4.3c0.9-0.8,1.8-1.9,2.8-3.4L533.1,519.1L533.1,519.1z"/>
	<path d="M565.2,518.7v42h8.9v2.9h-31.7v-2.9h9.6v-38.3h-9.6v-2.9h9.7C556.7,519.6,561.1,519.3,565.2,518.7z M551.4,497.1
		c0-1.6,0.7-3.1,2.2-4.3c1.5-1.2,3.2-1.8,5.2-1.8c2,0,3.7,0.6,5.2,1.8c1.5,1.2,2.2,2.6,2.2,4.3c0,1.8-0.7,3.2-2.2,4.4
		c-1.5,1.2-3.2,1.7-5.3,1.7c-2,0-3.8-0.6-5.3-1.8C552.2,500.3,551.4,498.9,551.4,497.1z"/>
	<path d="M625.2,548.4h2.9c-1.4,5.4-4.1,9.5-8.1,12.4c-4,2.8-8.8,4.3-14.5,4.3c-7.7,0-14.2-2.3-19.5-7c-5.3-4.7-8-10.1-8-16.2
		c0-6.3,2.7-11.8,8.2-16.5c5.5-4.7,12.2-7.1,20.3-7.1c5.8,0,10.5,1.2,14.1,3.6c3.6,2.4,5.5,5.1,5.5,8.1c0,1.5-0.6,2.8-1.9,4
		c-1.2,1.2-2.9,1.8-4.9,1.8c-2,0-3.6-0.5-4.9-1.5c-1.3-1-1.9-2.3-1.9-4c0-1.2,0.6-2.3,1.7-3.4c1.1-1.1,1.7-1.9,1.7-2.3
		c0-1-0.8-1.9-2.5-2.7s-3.9-1.1-6.6-1.1c-4.7,0-8.2,1-10.5,3.1c-2.3,2.1-3.4,6.5-3.4,13.3s0.2,11.8,0.6,15c0.4,3.2,1.6,5.8,3.4,7.6
		c1.9,1.8,4.9,2.8,9.2,2.8C615.3,562.5,621.6,557.8,625.2,548.4z"/>
	<path d="M640.3,560.7v-69.4h-9.8v-2.9h9.3c6.3,0,10.8-0.3,13.7-0.8v73.1h9.6v2.9h-32.7v-2.9H640.3z"/>
	<path d="M688,518.7v42h8.9v2.9h-31.7v-2.9h9.6v-38.3h-9.6v-2.9h9.7C679.5,519.6,683.8,519.3,688,518.7z M674.2,497.1
		c0-1.6,0.7-3.1,2.2-4.3c1.5-1.2,3.2-1.8,5.2-1.8c2,0,3.7,0.6,5.2,1.8c1.5,1.2,2.2,2.6,2.2,4.3c0,1.8-0.7,3.2-2.2,4.4
		c-1.5,1.2-3.2,1.7-5.3,1.7c-2,0-3.8-0.6-5.3-1.8C675,500.3,674.2,498.9,674.2,497.1z"/>
	<path d="M737.7,519.1v12.5h-2.8c-2.1-7.3-7.2-10.9-15.3-10.9c-3.5,0-6.4,0.8-8.8,2.3c-2.3,1.5-3.5,3.2-3.5,5.2
		c0,1.6,0.8,2.9,2.5,3.9c1.7,1,5.6,1.8,11.8,2.4c13.6,1.4,20.4,6.5,20.4,15.2c0,4.4-1.8,8-5.3,10.9c-3.5,2.9-7.9,4.4-13.1,4.4
		c-5.1,0-10.1-1.7-14.9-5.2l-4.8,3.4h-2.4v-16.5h2.4c3.9,10.6,10.5,15.9,19.7,15.9c3.5,0,6.7-0.9,9.6-2.7c2.9-1.8,4.3-4,4.3-6.4
		c0-2.1-0.9-3.6-2.6-4.7c-1.7-1-6.3-2-13.8-2.9c-12.8-1.5-19.2-6.2-19.2-14c0-3.8,1.7-7.1,5.2-9.7c3.4-2.6,7.6-3.9,12.6-3.9
		c5.2,0,9.6,1.4,13.2,4.3c0.9-0.8,1.8-1.9,2.8-3.4L737.7,519.1L737.7,519.1z"/>
	<path d="M772.1,506.8v12.8h16.2v2.9h-16.2v27.7c0,4.1,0.3,6.9,1,8.4c0.7,1.5,2.4,2.2,5.3,2.2c2.2,0,4.3-0.6,6.3-1.8
		c2-1.2,3.6-3,4.6-5.5h2.9c-2.1,7.2-8.4,10.9-19,10.9c-4.5,0-7.7-0.7-9.8-2c-2.1-1.3-3.4-3-3.9-4.9c-0.5-1.9-0.7-4.6-0.7-7.9v-27.1
		h-12.1v-2.9h12.1v-11.8C763.3,507.7,767.7,507.4,772.1,506.8z"/>
	<path d="M832.8,538.4v-5.7c0-4.7-0.5-7.7-1.4-9.2c-0.9-1.5-3.4-2.2-7.5-2.2c-7.4,0-11.1,1.2-11.1,3.5c0,0.7,0.3,1.4,0.9,2.2
		c0.6,0.8,0.9,1.7,0.9,2.8c0,1.5-0.6,2.7-1.8,3.5c-1.2,0.8-2.6,1.2-4.2,1.2c-2,0-3.5-0.5-4.6-1.5c-1.1-1-1.6-2.2-1.6-3.6
		c0-3,2.1-5.5,6.4-7.5c4.3-2,10.2-3.1,17.8-3.1c6.1,0,10.6,0.6,13.4,1.7c2.8,1.2,4.6,2.6,5.2,4.3c0.7,1.7,1,4.1,1,7.3v20.6
		c0,3,0.3,4.9,0.8,5.7s1.3,1.1,2.4,1.1c1.6,0,3.2-0.9,4.8-2.7h1.6c-1.2,5.5-5,8.2-11.6,8.2c-6.3,0-10.1-3-11.3-9
		c-5.3,6-11.6,9-18.7,9c-4.7,0-8.5-1.1-11.3-3.2c-2.8-2.1-4.2-4.7-4.2-7.8C798.6,544.5,810,539.3,832.8,538.4z M832.8,547.1V541
		c-8.4,0.3-14,1.3-16.6,3.1c-2.7,1.8-4,4.4-4,7.9c0,2.5,0.8,4.4,2.4,5.8c1.6,1.4,3.5,2.1,5.6,2.1c2.7,0,5.1-0.7,7.3-2.2
		c2.2-1.5,3.6-3,4.3-4.5C832.5,551.7,832.8,549.7,832.8,547.1z"/>
	<path d="M898.4,519.1v12.5h-2.8c-2.1-7.3-7.2-10.9-15.3-10.9c-3.5,0-6.4,0.8-8.8,2.3c-2.3,1.5-3.5,3.2-3.5,5.2
		c0,1.6,0.8,2.9,2.5,3.9c1.7,1,5.6,1.8,11.8,2.4c13.6,1.4,20.4,6.5,20.4,15.2c0,4.4-1.8,8-5.3,10.9c-3.5,2.9-7.9,4.4-13.1,4.4
		c-5.1,0-10.1-1.7-14.9-5.2l-4.8,3.4h-2.4v-16.5h2.4c3.9,10.6,10.5,15.9,19.7,15.9c3.5,0,6.7-0.9,9.6-2.7c2.9-1.8,4.3-4,4.3-6.4
		c0-2.1-0.9-3.6-2.6-4.7c-1.7-1-6.3-2-13.8-2.9c-12.8-1.5-19.2-6.2-19.2-14c0-3.8,1.7-7.1,5.2-9.7c3.4-2.6,7.6-3.9,12.6-3.9
		c5.2,0,9.6,1.4,13.2,4.3c0.9-0.8,1.8-1.9,2.8-3.4L898.4,519.1L898.4,519.1z"/>
</g>
<rect x="14.7" y="382.5" class="st0" width="345.8" height="279.7"/>
<rect x="33.3" y="401.4" class="st1" width="305.3" height="241.9"/>
<rect x="59.9" y="420.7" class="st2" width="117.8" height="203.4"/>
<text transform="matrix(1.1033 0 0 1 79.806 573.9066)" class="st3 st4 st5 st6">J</text>
<rect x="152.3" y="432.6" class="st2" width="161.9" height="179.5"/>
<text transform="matrix(1.1033 0 0 1 153.6839 602.7494)" class="st3 st4 st7 st8">T</text>
<rect x="397" y="575" class="st2" width="535" height="68.3"/>
<text transform="matrix(1 0 0 1 500.0557 620.9355)" class="st9 st10 st11">Desarrollador web</text>
</svg>
